control3min_grf.mot
version=1
nRows=25
nColumns 19
inDegrees=yes
endheader
time	1_ground_force_vx	1_ground_force_vy	1_ground_force_vz	1_ground_force_px	1_ground_force_py	1_ground_force_pz	1_ground_torque_x	1_ground_torque_y	1_ground_torque_z	2_ground_force_vx	2_ground_force_vy	2_ground_force_vz	2_ground_force_px	2_ground_force_py	2_ground_force_pz	2_ground_torque_x	2_ground_torque_y	2_ground_torque_z
            1.253500	            2.575838	          307.219817	           -9.557322	           -0.165195	            0.006411	           -0.446214	            0.006635	            0.791407	           -0.024620	            8.600779	          461.462353	           15.767586	           -0.166465	            0.005818	           -0.679701	           -0.015478	           -0.830434	           -0.028375
            1.254000	            2.622438	          303.073746	           -9.575214	           -0.165004	            0.006409	           -0.445732	            0.006175	            0.713602	           -0.022545	            8.759211	          456.491381	           15.609001	           -0.166207	            0.005819	           -0.679544	           -0.014857	           -0.774280	           -0.026475
            1.254500	            2.670176	          298.925648	           -9.134547	           -0.164942	            0.006410	           -0.446051	            0.005579	            0.624544	           -0.019085	            8.965679	          451.153407	           15.120585	           -0.165970	            0.005819	           -0.679261	           -0.015258	           -0.767789	           -0.025733
            1.255000	            2.808740	          293.878039	           -9.110675	           -0.164895	            0.006412	           -0.446446	            0.005991	            0.626851	           -0.019433	            8.935383	          446.550039	           14.963395	           -0.166000	            0.005818	           -0.679187	           -0.016564	           -0.827789	           -0.027738
            1.255500	            2.580525	          290.272091	           -8.987998	           -0.164919	            0.006411	           -0.446280	            0.005512	            0.619996	           -0.019198	            9.229048	          443.052761	           14.810007	           -0.166327	            0.005818	           -0.679538	           -0.017566	           -0.843266	           -0.028188
            1.256000	            3.040835	          285.583503	           -8.596529	           -0.164499	            0.006414	           -0.446848	            0.008204	            0.770527	           -0.023194	            9.487786	          436.240933	           14.550955	           -0.165770	            0.005818	           -0.678814	           -0.019273	           -0.886158	           -0.029558
            1.256500	            3.133437	          283.059015	           -8.424155	           -0.164670	            0.006409	           -0.445677	            0.008023	            0.724723	           -0.021569	            9.359056	          432.926942	           14.210691	           -0.165920	            0.005819	           -0.679229	           -0.017467	           -0.807986	           -0.026522
            1.257000	            3.272181	          277.650678	           -8.355973	           -0.163993	            0.006413	           -0.446806	            0.008021	            0.680556	           -0.020482	            9.474626	          426.850896	           14.048184	           -0.165644	            0.005817	           -0.678478	           -0.016052	           -0.723173	           -0.023801
            1.257500	            3.226783	          274.586380	           -8.414856	           -0.164810	            0.006410	           -0.446083	            0.006617	            0.563122	           -0.017257	            9.625728	          423.905699	           13.849899	           -0.165851	            0.005818	           -0.679082	           -0.015603	           -0.687146	           -0.022451
            1.258000	            3.411709	          270.438898	           -8.112098	           -0.164357	            0.006411	           -0.446320	            0.006965	            0.552087	           -0.016560	            9.785634	          418.565213	           14.018497	           -0.165678	            0.005817	           -0.678591	           -0.016139	           -0.690328	           -0.023120
            1.258500	            3.367567	          266.110940	           -7.763688	           -0.164446	            0.006413	           -0.446759	            0.006758	            0.534011	           -0.015580	            9.709858	          413.593060	           13.953868	           -0.165698	            0.005818	           -0.678679	           -0.015922	           -0.678193	           -0.022881
            1.259000	            3.322723	          262.505028	           -7.641465	           -0.164855	            0.006412	           -0.446502	            0.007739	            0.611411	           -0.017798	            9.958482	          409.544636	           13.376176	           -0.165545	            0.005818	           -0.678526	           -0.017594	           -0.723545	           -0.023632
            1.259500	            3.370024	          257.636911	           -7.433169	           -0.164136	            0.006415	           -0.447237	            0.008029	            0.613808	           -0.017709	           10.023215	          404.573326	           13.217631	           -0.165471	            0.005818	           -0.678477	           -0.017862	           -0.720991	           -0.023555
            1.260000	            3.691664	          254.211698	           -7.402796	           -0.163889	            0.006415	           -0.447157	            0.008478	            0.583779	           -0.017000	           10.318292	          400.707035	           13.250641	           -0.165345	            0.005818	           -0.678573	           -0.017837	           -0.692712	           -0.022907
            1.260500	            3.509094	          251.687354	           -7.275595	           -0.164051	            0.006408	           -0.445558	            0.006948	            0.498362	           -0.014406	           10.289346	          395.735219	           13.139065	           -0.165605	            0.005816	           -0.678281	           -0.016187	           -0.622577	           -0.020671
            1.261000	            3.557030	          246.457692	           -6.839565	           -0.163421	            0.006414	           -0.446930	            0.006444	            0.446466	           -0.012390	           10.354079	          390.763847	           12.980520	           -0.165142	            0.005818	           -0.678276	           -0.016797	           -0.633932	           -0.021058
            1.261500	            3.557640	          242.492044	           -6.902427	           -0.163760	            0.006416	           -0.447446	            0.005213	            0.355353	           -0.010115	           10.366604	          387.265889	           12.733395	           -0.165468	            0.005818	           -0.678466	           -0.014647	           -0.547160	           -0.017991
            1.262000	            3.650179	          239.066620	           -6.825629	           -0.163279	            0.006414	           -0.446958	            0.006978	            0.457003	           -0.013048	           10.382575	          382.846162	           12.764554	           -0.165381	            0.005818	           -0.678593	           -0.016481	           -0.607711	           -0.020262
            1.262500	            3.652090	          235.459144	           -6.336673	           -0.163237	            0.006415	           -0.447007	            0.008066	            0.520040	           -0.013995	           10.634790	          377.874858	           12.793642	           -0.165244	            0.005817	           -0.678150	           -0.018675	           -0.663567	           -0.022466
            1.263000	            3.789707	          231.854840	           -6.581753	           -0.163659	            0.006415	           -0.447197	            0.008128	            0.497254	           -0.014116	           10.558206	          373.087957	           12.401173	           -0.165199	            0.005817	           -0.677911	           -0.017004	           -0.600867	           -0.019972
            1.263500	            3.836694	          229.329950	           -6.317553	           -0.163614	            0.006412	           -0.446471	            0.009045	            0.540620	           -0.014893	           10.665219	          369.405192	           12.434920	           -0.165251	            0.005817	           -0.678181	           -0.014872	           -0.515122	           -0.017340
            1.264000	            3.929314	          226.084596	           -6.194126	           -0.164025	            0.006409	           -0.445794	            0.006980	            0.401626	           -0.011004	           11.055907	          364.987488	           12.278207	           -0.165364	            0.005816	           -0.677903	           -0.017797	           -0.587528	           -0.019764
            1.264500	            3.883788	          222.479863	           -6.347039	           -0.163589	            0.006411	           -0.446297	            0.006187	            0.354392	           -0.010110	           10.884499	          360.566916	           12.356374	           -0.165180	            0.005817	           -0.677962	           -0.014299	           -0.473673	           -0.016232
            1.265000	            3.977321	          217.971470	           -5.953887	           -0.163256	            0.006416	           -0.447328	            0.005828	            0.319420	           -0.008725	           10.856944	          355.226256	           12.384267	           -0.165018	            0.005815	           -0.677262	           -0.014940	           -0.488834	           -0.017042
            1.265500	            4.253507	          214.906023	           -5.738431	           -0.162797	            0.006417	           -0.447564	            0.008561	            0.432559	           -0.011550	           11.054834	          352.281731	           12.045177	           -0.164991	            0.005817	           -0.677716	           -0.015878	           -0.505982	           -0.017300
